<svg xmlns="http://www.w3.org/2000/svg" width="18.637" height="18.672" viewBox="0 0 18.637 18.672">
  <g id="Icon_feather-phone" data-name="Icon feather-phone" transform="translate(0.501 0.5)">
    <path id="Icon_feather-phone-2" data-name="Icon feather-phone" d="M19.219,14.73v2.66a1.773,1.773,0,0,1-1.933,1.773,17.548,17.548,0,0,1-7.652-2.722,17.291,17.291,0,0,1-5.32-5.32A17.548,17.548,0,0,1,1.591,3.433,1.773,1.773,0,0,1,3.356,1.5h2.66A1.773,1.773,0,0,1,7.789,3.025,11.385,11.385,0,0,0,8.41,5.517a1.773,1.773,0,0,1-.4,1.871L6.885,8.514a14.188,14.188,0,0,0,5.32,5.32l1.126-1.126a1.773,1.773,0,0,1,1.871-.4,11.386,11.386,0,0,0,2.492.621,1.773,1.773,0,0,1,1.525,1.8Z" transform="translate(-1.584 -1.5)" fill="none" stroke="#000" stroke-linecap="round" stroke-linejoin="round" stroke-width="1"/>
  </g>
</svg>
