<svg xmlns="http://www.w3.org/2000/svg" width="23.164" height="20.7" viewBox="0 0 23.164 20.7">
  <g id="Icon_awesome-piggy-bank" data-name="Icon awesome-piggy-bank" transform="translate(0.503 0.5)">
    <path id="Icon_awesome-piggy-bank-2" data-name="Icon awesome-piggy-bank" d="M21.548,8.619H20.412A6.175,6.175,0,0,0,18.973,6.6l.727-2.9H18.469a3.67,3.67,0,0,0-2.809,1.32,6.1,6.1,0,0,0-.885-.088H9.851A6.162,6.162,0,0,0,3.818,9.85H2.155a.924.924,0,0,1-.9-1.108A.948.948,0,0,1,2.194,8h.038a.232.232,0,0,0,.231-.231V7a.232.232,0,0,0-.231-.231A2.2,2.2,0,0,0,.02,8.642a2.156,2.156,0,0,0,2.135,2.439H3.694a6.131,6.131,0,0,0,2.462,4.9v3.105a.617.617,0,0,0,.616.616H9.235a.617.617,0,0,0,.616-.616V17.237h4.925v1.847a.617.617,0,0,0,.616.616h2.462a.617.617,0,0,0,.616-.616V15.979a6.157,6.157,0,0,0,1.2-1.2h1.874a.617.617,0,0,0,.616-.616V9.234A.617.617,0,0,0,21.548,8.619Zm-4.925,2.462a.616.616,0,1,1,.616-.616A.617.617,0,0,1,16.623,11.081ZM9.851,3.694h4.925c.208,0,.412.015.612.031,0-.012,0-.019,0-.031A3.694,3.694,0,0,0,8,3.694c0,.081.019.158.023.239A7.314,7.314,0,0,1,9.851,3.694Z" transform="translate(-0.002)" fill="none" stroke="#000" stroke-width="1"/>
  </g>
</svg>
